<?xml version="1.0" standalone="no"?>
<!DOCTYPE svg PUBLIC "-//W3C//DTD SVG 1.1//EN" "http://www.w3.org/Graphics/SVG/1.1/DTD/svg11.dtd" >
<!--
2013-9-30: Created.
-->
<svg>
<metadata>
Created by iconfont
</metadata>
<defs>

<font id="iconfont" horiz-adv-x="1024" >
  <font-face
    font-family="iconfont"
    font-weight="500"
    font-stretch="normal"
    units-per-em="1024"
    ascent="896"
    descent="-128"
  />
    <missing-glyph />
    
    <glyph glyph-name="s-down" unicode="&#59021;" d="M729.700133 153.69625599999995q4.571136-10.856448-2.85696-19.99872l-199.9872-219.414528q-5.71392-5.71392-13.142016-5.71392-7.999488 0-13.713408 5.71392l-202.84416 219.414528q-7.428096 9.142272-2.85696 19.99872 5.142528 10.856448 16.570368 10.856448l127.991808 0 0 713.097216q0 7.999488 5.142528 13.142016t13.142016 5.142528l109.707264 0q7.999488 0 13.142016-5.142528t5.142528-13.142016l0-713.097216 127.991808 0q11.999232 0 16.570368-10.856448z"  horiz-adv-x="1024" />

    
    <glyph glyph-name="s-up" unicode="&#59361;" d="M729.700133 614.238208q-5.142528-10.856448-16.570368-10.856448l-127.991808 0 0-713.097216q0-7.999488-5.142528-13.142016t-13.142016-5.142528l-109.707264 0q-7.999488 0-13.142016 5.142528t-5.142528 13.142016l0 713.097216-127.991808 0q-11.999232 0-16.570368 10.856448t2.85696 19.99872l199.9872 219.414528q5.71392 5.71392 13.142016 5.71392 7.999488 0 13.713408-5.71392l202.84416-219.414528q7.428096-9.142272 2.85696-19.99872z"  horiz-adv-x="1024" />

    
    <glyph glyph-name="s-line" unicode="&#58938;" d="M531.185456-47.532317000000035c0-8.899694-6.493901-16.114003-14.503319-16.114003l-9.364275 0c-8.010441 0-14.504342 7.214309-14.504342 16.114003L492.81352 815.53334c0 8.898671 6.493901 16.114003 14.504342 16.114003l9.364275 0c8.009418 0 14.503319-7.215332 14.503319-16.114003L531.185456-47.532317000000035z"  horiz-adv-x="1024" />

    
    <glyph glyph-name="s-min" unicode="&#58885;" d="M1016.522 171.55999999999995h-182.648v-236.781h-61.532v1.168h-648.031v-1.168h-61.532v662.44h236.002v236.002h779.273v-661.662h-61.532zM124.311-2.520999999999958h648.031v538.208h-648.031v-538.208zM1016.522 771.689h-656.21v-174.47h473.561v-364.128h182.648v538.598z"  horiz-adv-x="1157" />

    
    <glyph glyph-name="s-pause-filled" unicode="&#59065;" d="M511.981069 771.937426c-214.241432 0-387.92003-173.679621-387.92003-387.956869 0-214.241432 173.679621-387.919007 387.92003-387.919007 214.279295 0 387.959939 173.678598 387.959939 387.919007C899.941008 598.257805 726.261387 771.937426 511.981069 771.937426zM329.381287 162.03874599999995l-0.042979 443.920462 131.60127 0 0-443.920462L329.381287 162.03874599999995zM563.078841 162.03874599999995l-0.037862 443.920462 131.599224 0 0-443.920462L563.078841 162.03874599999995z"  horiz-adv-x="1024" />

    
    <glyph glyph-name="suoxiao3" unicode="&#58982;" d="M128.549771 384c0 16.956184 13.746072 30.702256 30.702256 30.702256L865.311815 414.702256c16.956184 0 30.702256-13.746072 30.702256-30.702256l0 0c0-16.956184-13.746072-30.702256-30.702256-30.702256L159.252027 353.297744C142.29482 353.297744 128.549771 367.043816 128.549771 384L128.549771 384z"  horiz-adv-x="1024" />

    
    <glyph glyph-name="suoxiao4" unicode="&#59094;" d="M11.785517 356.610855C4.503316 363.893056 0 373.954141 0 385.06968 0 407.304565 18.009457 425.314022 40.248149 425.317829L981.616297 425.317829C1003.851182 425.317829 1021.860639 407.308372 1021.860639 385.06968 1021.860639 362.834796 1003.851182 344.825338 981.616297 344.825338L40.248149 344.825338C29.128803 344.825338 19.067717 349.328654 11.785517 356.610855"  horiz-adv-x="1024" />

    
    <glyph glyph-name="s-jointly" unicode="&#58967;" d="M514.977309 598.601636c-64.387449 0-116.771517 52.377928-116.771517 116.760261 0 64.388473 52.383044 116.771517 116.771517 116.771517 64.376193 0 116.751051-52.383044 116.751051-116.771517 0-64.382333-52.374858-116.760261-116.751051-116.760261z m0 192.59953c-41.817408 0-75.839269-34.021861-75.839269-75.839269 0-41.811268 34.021861-75.828013 75.839269-75.828013 41.806151 0 75.818803 34.015721 75.818803 75.828013 0 41.817408-34.011628 75.839269-75.818803 75.839269zM840.909543 49.638792999999964c-64.363913 0-116.727515 52.383044-116.727514 116.770494 0 64.388473 52.363601 116.771517 116.727514 116.771516 64.399729 0 116.791983-52.383044 116.791983-116.771516 0-64.387449-52.393277-116.770494-116.791983-116.770494z m0 192.609762c-41.793872 0-75.795267-34.021861-75.795266-75.839268s34.002418-75.838246 75.795266-75.838246c41.828664 0 75.859735 34.020838 75.859735 75.838246s-34.031071 75.839269-75.859735 75.839268zM180.746062 49.638792999999964c-64.376193 0-116.750027 52.383044-116.750027 116.770494 0 64.388473 52.373835 116.771517 116.750027 116.771516s116.750027-52.383044 116.750028-116.771516c0-64.387449-52.373835-116.770494-116.750028-116.770494z m0 192.609762c-41.806151 0-75.81778-34.021861-75.817779-75.839268s34.011628-75.838246 75.817779-75.838246 75.81778 34.020838 75.81778 75.838246-34.011628 75.839269-75.81778 75.839268zM508.04441-61.96093399999995c-57.08309 0-112.124683 11.996219-163.595962 35.653011-49.734728 22.859637-93.430926 55.295374-129.875976 96.407723l30.629601 27.15343c66.6377-75.170027 162.439626-118.281917 262.842337-118.281917 56.597019 0 110.632703 13.060457 160.607908 38.819121l18.753109-36.383652c-55.830563-28.776394-116.175953-43.367717-179.361017-43.367716z m384.534933 315.301105l-40.144302 7.993045c4.464685 22.424732 6.728238 45.564755 6.728238 68.778456 0 120.069633-60.347436 230.562143-161.427576 295.566646l22.141276 34.428114c54.177923-34.842553 99.392708-82.974783 130.754997-139.195226 32.358989-58.008158 49.463552-123.985826 49.463551-190.79851 0-25.891693-2.52859-51.720965-7.516184-76.772525z m-735.551472 85.675289l-40.925085 0.763386c0.077771 4.178159 0.255827 8.550747 0.575098 14.180977 2.579755 42.850947 12.047384 84.572164 28.145014 124.071784 15.620769 38.328957 37.164435 73.832566 64.035432 105.528451 26.690896 31.483038 57.984622 58.44511 93.012394 80.136132 35.685757 22.098297 74.4312 38.207184 115.161856 47.880497l9.457396-39.825031c-149.136645-35.416628-259.732509-167.08032-268.949428-320.181253-0.286526-5.022387-0.445138-8.916067-0.512677-12.554943z"  horiz-adv-x="1024" />

    
    <glyph glyph-name="wenjianjia" unicode="&#58894;" d="M974.178054 10.865424H65.722567V729.573499h429.31677l71.022775-115.544513H975.238095v-603.163562zM565.00207 614.028986l-71.022774 115.544513H65.722567v-115.544513z"  horiz-adv-x="1037" />

    
    <glyph glyph-name="s-file-back" unicode="&#59044;" d="M832.68096 75.44320000000005c0-28.27776-22.92224-51.2-51.2-51.2H254.1312c-28.27776 0-51.2 22.92224-51.2 51.2v675.84c0 28.27776 22.92224 51.2 51.2 51.2h527.34464c28.27776 0 51.2-22.92224 51.2-51.2v-675.84h0.00512zM781.47584 6.328319999999962H254.1312c-38.11328 0-69.12 31.00672-69.12 69.12v675.84c0 38.11328 31.00672 69.12 69.12 69.12h527.34464c38.11328 0 69.12-31.00672 69.12-69.12v-675.84c0-38.1184-31.0016-69.12-69.12-69.12zM254.1312 784.5632a33.32096 33.32096 0 0 1-33.28-33.28v-675.84c0-18.35008 14.92992-33.28 33.28-33.28h527.34464c18.35008 0 33.28 14.92992 33.28 33.28v675.84c0 18.35008-14.92992 33.28-33.28 33.28H254.1312zM348.63104 639.49824h338.35008v-37.54496H348.63104zM348.63104 451.7632h338.35008v-37.54496H348.63104zM348.63104 264.03328h338.35008v-37.54496H348.63104z"  horiz-adv-x="1024" />

    
    <glyph glyph-name="s-undo" unicode="&#58946;" d="M790.34314433 457.72669567c51.912323-30.944779 115.608018-114.424052 142.109602-214.915791 26.501584-100.489692 22.107507-190.477192 22.107507-190.477192s-34.30941 55.416124-48.220235 74.841545-72.528873 91.801822-163.516144 133.751237S499.75181333 295.40475067 499.75181333 295.40475067l0-174.679391-419.146219 296.895921 419.146219 296.894897 0-176.285982c0 0 100.689237-7.577582 153.318898-18.476817C741.71870433 501.39526467 790.34314433 457.72669567 790.34314433 457.72669567z"  horiz-adv-x="1024" />

    
    <glyph glyph-name="s-share-extract" unicode="&#58925;" d="M0 0v-128l53.12 99.2c99.2 165.12 286.08 262.4 515.84 270.08v-312.32l568.96 483.2L568.96 896v-313.6A590.72 590.72 0 0 1 0 0z m64 82.56a537.6 537.6 0 0 0 533.12 443.52h28.8v256l426.24-367.36-426.24-366.72V298.88h-28.8A694.4 694.4 0 0 1 64 81.91999999999996z"  horiz-adv-x="1137" />

    
    <glyph glyph-name="s-member" unicode="&#58882;" d="M512.01 765.182c61.169 0 116.569-24.81 156.68-64.913 40.103-40.106 64.908-95.507 64.908-156.68 0-61.17-24.804-116.594-64.908-156.68a222.476 222.476 0 0 0-32.867-27.096c46.81-17.707 88.838-45.13 123.622-79.813 63.426-63.283 102.665-150.63 102.665-247.02 0-16.65-13.51-30.163-30.181-30.163-16.646 0-30.157 13.511-30.157 30.162 0 79.861-32.398 152.121-84.767 204.355-52.354 52.21-124.702 84.557-204.635 84.662h-0.727c-79.966-0.106-152.313-32.451-204.65-84.661-52.37-52.234-84.766-124.494-84.766-204.355 0-16.65-13.512-30.162-30.179-30.162-16.65 0-30.16 13.511-30.16 30.162 0 96.39 39.24 183.738 102.681 247.021 34.752 34.684 76.779 62.106 123.59 79.813a222.818 222.818 0 0 0-32.847 27.095c-40.09 40.088-64.895 95.512-64.895 156.68 0 61.174 24.805 116.575 64.895 156.681 40.104 40.103 95.508 64.912 156.698 64.912z m114.008-107.585c-29.172 29.174-69.49 47.246-114.008 47.246-44.523 0-84.857-18.072-114.03-47.246-29.172-29.172-47.241-69.485-47.241-114.008s18.068-84.835 47.242-114.03c29.086-29.084 69.279-47.12 113.663-47.224h0.711c44.38 0.105 84.572 18.141 113.66 47.224 29.177 29.194 47.244 69.507 47.244 114.03s-18.067 84.836-47.24 114.008z m0 0"  horiz-adv-x="1024" />

    
    <glyph glyph-name="s-folder-share" unicode="&#59991;" d="M94.814815 896h296.77037l189.62963-87.703704H1042.962963a94.814815 94.814815 0 0 0 94.814815-94.814815V-4.740740999999957a94.814815 94.814815 0 0 0-94.814815-94.814815H94.814815a94.814815 94.814815 0 0 0-94.814815 94.814815V801.185185a94.814815 94.814815 0 0 0 94.814815 94.814815zM0 630.518519h1137.777778v-663.703704a94.814815 94.814815 0 0 0-94.814815-94.814815H94.814815a94.814815 94.814815 0 0 0-94.814815 94.814815zM932.503704 134.162963a71.111111 71.111111 0 0 1-47.407408-18.488889L711.111111 214.75555599999996a64.948148 64.948148 0 0 1 0 33.185185l170.666667 98.133333a73.007407 73.007407 0 0 1 47.407407-19.437037 71.585185 71.585185 0 1 1-72.533333 71.585185 69.214815 69.214815 0 0 1 0-16.592592l-170.666667-98.133334a73.007407 73.007407 0 0 1-47.407407 19.437037 71.585185 71.585185 0 1 1 0-142.222222 73.007407 73.007407 0 0 1 47.407407 19.437037l172.562963-99.081481a66.37037 66.37037 0 0 1 0-15.644445 70.637037 70.637037 0 1 1 70.637037 69.214815z"  horiz-adv-x="1137" />

    
    <glyph glyph-name="s-max-back" unicode="&#58953;" d="M42.666667 573.6106669999999V42.66666699999996H981.333333V725.333333H42.666667v-151.722666z m860.458666 0v-455.125334H120.874667V573.6106669999999h782.250666z"  horiz-adv-x="1024" />

    
    <glyph glyph-name="s-sure" unicode="&#58896;" d="M821.9 543l-365-365-4.1-4.1c-12.3-12.3-33.3-12.3-45.6 0L204.1 377.20000000000005c-12.3 12.3-12.3 33.3 0 45.6l4.1 4.1c12.3 12.8 32.7 12.8 45 0.6l177-177 341.6 341.6c12.3 12.3 33.3 12.3 45.6 0l4.1-4.1c13.3-11.7 13.3-32.7 0.4-45zM75 748v-730c0-40.3 32.7-73 73-73h730c40.3 0 73 32.7 73 73V748c0 40.3-32.7 73-73 73H148c-40.3 0-73-32.7-73-73z m-73 0C2 828.6 67.4 894 148 894h730c80.6 0 146-65.4 146-146v-730c0-80.6-65.4-146-146-146H148C67.4-128 2-62.60000000000002 2 18V748z"  horiz-adv-x="1024" />

    
    <glyph glyph-name="s-project" unicode="&#58966;" d="M842.447568 380.402162a21.587027 21.587027 0 0 1-16.605406-1.66054l-41.79027-20.756757-272.051892-124.540541-285.059459 130.62919c-4.704865 2.214054-16.605405 8.025946-27.675676 14.114594h-1.660541a21.863784 21.863784 0 1 1-20.203243-38.745946 251.848649 251.848649 0 0 1 46.218378-22.970811l287.827027-131.736216L802.594595 318.131892l25.738378 12.730811 19.372973 9.686486a21.863784 21.863784 0 0 1-3.874595 40.12973zM784.051892 207.15243199999998l-272.051892-124.54054-284.229189 130.352432a273.712432 273.712432 0 0 0-27.675676 14.668108 21.587027 21.587027 0 0 1-10.793513 2.767568 21.863784 21.863784 0 0 1-10.793514-40.683243 292.255135 292.255135 0 0 1 45.941622-22.694054l287.55027-132.28973L802.594595 167.29945899999996l25.738378 12.730811 19.372973 9.686487a21.863784 21.863784 0 0 1-20.756757 38.469189zM827.225946 577.1762160000001L553.513514 720.536216a77.215135 77.215135 0 0 1-39.852973 12.730811 94.927568 94.927568 0 0 1-43.174055-12.177297L193.72973 575.792432a58.672432 58.672432 0 0 1-25.461622-52.03027 55.351351 55.351351 0 0 1 27.675676-46.771892l273.712432-122.326486a91.883243 91.883243 0 0 1 39.022703-10.793514 99.909189 99.909189 0 0 1 40.12973 10.516757l274.542702 122.88a52.583784 52.583784 0 0 1 27.675676 47.325405 55.351351 55.351351 0 0 1-23.801081 52.583784z m-16.882162-57.842162v-1.66054h-1.383784l-276.756757-123.433514a52.307027 52.307027 0 0 0-19.926486-6.365405 53.137297 53.137297 0 0 0-21.310271 6.918919l-272.605405 121.772972c-4.151351 1.937297-4.428108 7.749189-4.704865 9.40973A20.756757 20.756757 0 0 0 215.87027 536.216216l273.712433 143.913514a53.690811 53.690811 0 0 0 22.417297 6.918919 37.085405 37.085405 0 0 0 19.096216-6.918919l274.542703-144.190271a23.524324 23.524324 0 0 0 4.704865-16.605405z"  horiz-adv-x="1024" />

    
    <glyph glyph-name="s-folder-open" unicode="&#58962;" d="M881.719008 515.173554c15.867769 0 28.561983-8.991736 32.264463-23.801653 1.057851-3.173554 1.057851-6.347107 1.057851-10.049587v-260.760331c0-19.570248-14.280992-33.85124-33.322314-33.851239H482.909091c-19.570248 0-33.322314 14.280992-33.322314 33.851239V515.173554h432.132231M681.256198 516.231405c0 34.380165-28.561983 61.884298-64.528925 61.884297H482.909091c-19.570248 0-33.322314-13.752066-33.322314-32.264462v-30.148761c16.92562 0 233.785124 0.528926 231.669421 0.528926"  horiz-adv-x="1365" />

    
    <glyph glyph-name="s-max" unicode="&#58988;" d="M928 736H96c-17.6 0-32-14.4-32-32v-640c0-17.6 14.4-32 32-32h832c17.6 0 32 14.4 32 32V704c0 17.6-14.4 32-32 32z m-32-640H128V608h768v-512z"  horiz-adv-x="1024" />

    
    <glyph glyph-name="s-minimize-back" unicode="&#59013;" d="M160 352a32 32 0 0 0 0 64h704a32 32 0 0 0 0-64z"  horiz-adv-x="1024" />

    
    <glyph glyph-name="s-close-back" unicode="&#59016;" d="M265.28 585.28a32 32 0 0 0 45.44 45.44l448-448a32 32 0 0 0-45.44-45.44zM713.28 630.72a32 32 0 0 0 45.44-45.44l-448-448a32 32 0 0 0-45.44 45.44z"  horiz-adv-x="1024" />

    
    <glyph glyph-name="s-completed" unicode="&#59015;" d="M809.28 630.72a32 32 0 0 0 45.44-45.44l-448-448a32 32 0 0 0-45.44 0l-224 224a32 32 0 0 0 45.44 45.44l201.28-201.6z"  horiz-adv-x="1024" />

    
    <glyph glyph-name="s-person" unicode="&#59024;" d="M672 576a160 160 0 1 1-160-160 160 160 0 0 1 160 160z m64 0a224 224 0 1 0-224 224 224 224 0 0 0 224-224zM224 64a32 32 0 0 0-64 0 352 352 0 0 0 704 0 32 32 0 0 0-64 0 288 288 0 0 1-576 0z"  horiz-adv-x="1024" />

    
    <glyph glyph-name="s-password" unicode="&#59025;" d="M800 64a32 32 0 0 1 32 32V416a32 32 0 0 1-32 32H224a32 32 0 0 1-32-32v-320a32 32 0 0 1 32-32z m0-64H224a96 96 0 0 0-96 96V416a96 96 0 0 0 96 96h576a96 96 0 0 0 96-96v-320a96 96 0 0 0-96-96zM480 320a32 32 0 0 0 64 0v-128a32 32 0 0 0-64 0zM352 480a32 32 0 0 0-64 0v96a224 224 0 0 0 448 0v-96a32 32 0 0 0-64 0v96a160 160 0 0 1-320 0z"  horiz-adv-x="1024" />

    
    <glyph glyph-name="s-setting" unicode="&#59027;" d="M608 384a96 96 0 1 1-96-96 96 96 0 0 1 96 96z m64 0a160 160 0 1 0-160 160 160 160 0 0 0 160-160zM864 480a64 64 0 0 0 64-64v-64a64 64 0 0 0-64-64h-13.44a339.2 339.2 0 0 0-32-75.52l9.6-9.28a64 64 0 0 0 0-90.88l-44.48-45.12a64 64 0 0 0-90.88 0l-9.28 9.6a345.6 345.6 0 0 0-75.52-32v-12.8a64 64 0 0 0-64-64h-64a64 64 0 0 0-64 64v13.44a345.6 345.6 0 0 0-75.52 32l-9.28-9.6a64 64 0 0 0-90.88 0L195.2 112.32000000000005a64 64 0 0 0 0 90.88l9.6 9.28a345.6 345.6 0 0 0-32 75.52H160a64 64 0 0 0-64 64v64a64 64 0 0 0 64 64h13.44a345.6 345.6 0 0 0 32 75.52l-9.6 9.28a64 64 0 0 0 0 90.88L240.32 700.8a64 64 0 0 0 90.88 0l9.28-9.6a345.6 345.6 0 0 0 75.52 32V736a64 64 0 0 0 64 64h64a64 64 0 0 0 64-64v-13.44a345.6 345.6 0 0 0 75.52-32l9.28 9.6a64 64 0 0 0 90.88 0l45.12-44.48a64 64 0 0 0 0-90.88l-9.6-9.28a339.2 339.2 0 0 0 32-75.52z m-38.4-64a32 32 0 0 0-32 25.6 289.92 289.92 0 0 1-41.28 102.4 32 32 0 0 0 3.84 40.32l27.2 27.2-45.12 43.84-27.2-27.2a32 32 0 0 0-39.04-3.84 289.92 289.92 0 0 1-102.4 41.92 32 32 0 0 0-25.6 32V736h-64v-38.4a32 32 0 0 0-25.6-32A289.92 289.92 0 0 1 352 624.3199999999999a32 32 0 0 0-40.32 3.84l-27.2 27.2-43.84-45.12 27.2-27.2A32 32 0 0 0 271.68 544a289.92 289.92 0 0 1-41.92-102.4 32 32 0 0 0-32-25.6H160v-64h38.4a32 32 0 0 0 32-25.6A289.92 289.92 0 0 1 271.68 224a32 32 0 0 0-3.84-40.32l-27.2-27.2 45.12-45.12 27.2 27.2a32 32 0 0 0 39.04 5.12 289.92 289.92 0 0 1 101.12-41.92 32 32 0 0 0 25.6-32V32h64v38.4a32 32 0 0 0 25.6 32A289.92 289.92 0 0 1 672 143.67999999999995a32 32 0 0 0 40.32-3.84l27.2-27.2 45.12 45.12-27.2 27.2a32 32 0 0 0-5.12 39.04 289.92 289.92 0 0 1 41.92 101.12 32 32 0 0 0 32 25.6H864V416z"  horiz-adv-x="1024" />

    
    <glyph glyph-name="s-tansmit-upload" unicode="&#59030;" d="M768 544a224 224 0 0 0 0-448h-32a32 32 0 0 0 0 64h32a160 160 0 0 1 0 320 147.2 147.2 0 0 1-27.84-2.56 32 32 0 0 0-38.08 27.52 192 192 0 0 1-380.16 0 32 32 0 0 0-38.08-27.52A147.2 147.2 0 0 1 256 480a160 160 0 0 1 0-320h32a32 32 0 0 0 0-64H256a224 224 0 0 0 0 448h8.32a256 256 0 0 0 495.36 0zM544 0a32 32 0 0 0-64 0v288a32 32 0 0 0 64 0zM424 138.88a32 32 0 1 0-48 42.24l112 128a32 32 0 0 0 48 0l112-128a32 32 0 0 0-48-42.24L512 239.36z"  horiz-adv-x="1024" />

    
    <glyph glyph-name="s-tansmit-download" unicode="&#59032;" d="M768 544a224 224 0 0 0 0-448h-32a32 32 0 0 0 0 64h32a160 160 0 0 1 0 320 147.2 147.2 0 0 1-27.84-2.56 32 32 0 0 0-38.08 27.52 192 192 0 0 1-380.16 0 32 32 0 0 0-38.08-27.52A147.2 147.2 0 0 1 256 480a160 160 0 0 1 0-320h32a32 32 0 0 0 0-64H256a224 224 0 0 0 0 448h8.32a256 256 0 0 0 495.36 0zM480 288a32 32 0 0 0 64 0v-288a32 32 0 0 0-64 0zM600 149.12a32 32 0 0 0 48-42.24l-112-128a32 32 0 0 0-48 0l-112 128a32 32 0 1 0 48 42.24L512 48.639999999999986z"  horiz-adv-x="1024" />

    
    <glyph glyph-name="s-quit" unicode="&#59041;" d="M657.28 675.52a32 32 0 0 0 29.44 56.96A388.16 388.16 0 0 0 512 0a388.16 388.16 0 0 0-174.72 732.48 32 32 0 1 0 29.44-56.96 322.56 322.56 0 1 1 465.28-288 323.52 323.52 0 0 1-174.72 288zM480 800a32 32 0 0 0 64 0v-320a32 32 0 0 0-64 0z"  horiz-adv-x="1024" />

    
    <glyph glyph-name="Group-5" unicode="&#59043;" d="M310.72 406.72a32 32 0 0 0-45.44-45.44l-128 128a32 32 0 0 0 0 45.44l128 128a32 32 0 1 0 45.44-45.44L205.12 512zM160 480a32 32 0 0 0 0 64h384a32 32 0 0 0 0-64zM713.28 361.28a32 32 0 0 0 45.44 45.44l128-128a32 32 0 0 0 0-45.44l-128-128a32 32 0 0 0-45.44 45.44l105.6 105.28zM864 288a32 32 0 0 0 0-64H480a32 32 0 0 0 0 64z"  horiz-adv-x="1024" />

    
    <glyph glyph-name="Group-6" unicode="&#59045;" d="M736 640a64 64 0 1 1-64-64 64 64 0 0 1 64 64z m64 0a128 128 0 1 0-128 128 128 128 0 0 0 128-128zM288 384a64 64 0 1 1-64-64 64 64 0 0 1 64 64z m64 0a128 128 0 1 0-128 128 128 128 0 0 0 128-128zM832 128a96 96 0 1 1-96-96 96 96 0 0 1 96 96z m64 0a160 160 0 1 0-160 160 160 160 0 0 0 160-160zM334.4 419.52a32 32 0 1 0-28.8 56.96l256 128a32 32 0 1 0 28.8-56.96zM304.32 324.16a32 32 0 0 0 32 55.68l288-160a32 32 0 1 0-32-55.68z"  horiz-adv-x="1024" />

    
    <glyph glyph-name="s-restore" unicode="&#58891;" d="M409.941333 557.568l154.112 153.770667c13.141333 12.970667 16.554667 34.133333 3.413334 47.104-13.141333 13.141333-34.304 13.141333-47.274667 0L308.394667 547.328c-13.141333-12.970667-13.141333-34.133333 0-47.274667l211.797333-211.114666c13.141333-12.970667 35.498667-14.165333 47.274667 0 10.24 12.288 6.314667 34.133333-6.826667 47.274666l-152.234667 156.842667h379.221334c115.541333 0 219.477333-98.645333 219.477333-214.016 0-115.370667-103.936-214.016-219.477333-214.016H474.794667c-19.285333 0-34.816-10.410667-34.816-29.696 0-19.285333 15.701333-34.816 34.816-34.816h312.832c154.112 0 278.869333 124.757333 278.869333 278.528s-124.928 278.528-278.869333 278.528H409.941333z m377.685334 0"  horiz-adv-x="1365" />

    
    <glyph glyph-name="s-open-folderback" unicode="&#59001;" d="M913.294222 461.255111L753.777778 62.35022200000003c-10.012444-14.904889-24.917333-24.917333-44.828445-29.923555H205.368889c-5.006222 0-14.904889 5.006222-14.904889 10.012444-5.006222 5.006222-5.006222 14.904889 0 19.911111l159.516444 398.904889c5.006222 19.911111 19.911111 29.923556 39.936 29.923556h508.586667c5.006222 0 14.904889-5.006222 14.904889-10.012445 4.892444-4.892444 4.892444-14.904889-0.113778-19.911111zM838.542222 551.025778H310.044444L120.604444 77.36888899999997V695.637333c0 24.917333 14.904889 39.936 39.936 39.936h249.287112c19.911111 0 39.936-14.904889 39.936-39.936V670.72h393.898666c19.911111 0 39.936-14.904889 39.936-39.936v-44.828444c-10.126222-19.911111-25.144889-34.929778-45.056-34.929778z"  horiz-adv-x="1024" />

    
    <glyph glyph-name="s-open-folder" unicode="&#58884;" d="M893.1328 80.07680000000005c0-28.2624-22.9376-51.2-51.2-51.2H201.9328l89.7024 422.5024c0 28.2624 22.7328 51.2 50.9952 51.2h589.0048c28.2624 0 51.2-22.9376 51.2-51.2l-89.7024-371.3024z m-589.0048 460.8h576.1024v50.3808c0 28.2624-22.9376 51.2-51.2 51.2h-307.2v46.4896c0 28.2624-22.9376 51.2-51.2 51.2h-256c-28.2624 0-51.2-22.9376-51.2-51.2v-608.6656l89.4976 409.6c0 28.0576 23.1424 50.9952 51.2 50.9952z m0 0"  horiz-adv-x="1024" />

    
    <glyph glyph-name="s-resume" unicode="&#59075;" d="M230.771397-128a88.036398 88.036398 0 0 0-87.904541 87.904541V808.095459a87.816637 87.816637 0 0 0 140.647265 70.133173L846.103185 454.133173a87.816637 87.816637 0 0 0 0-140.251695L283.514121-110.22863199999995a87.49432 87.49432 0 0 0-52.742724-17.771368z m0 935.91965v-847.8393l562.398603 423.91965zM793.228603 383.956048zM230.771397 808.388474z"  horiz-adv-x="1024" />

    
    <glyph glyph-name="s-folder" unicode="&#59173;" d="M64.255 71.988L68.742 63l4.487-4.487 4.487-4.487 4.487-4.487 4.487-4.487 8.988-4.487 17.948-4.487h798.866l17.962 4.487 8.974 4.487 4.487 4.487 4.487 4.487 4.487 4.487 4.487 8.988 4.487 8.974V606.066H68.742v98.728h-4.487zM95.678 740.703l-8.988-4.487-4.487-4.487-4.487-4.487-4.487-4.487-4.487-8.987v-107.702h893.121v22.435l-4.487 8.974-4.487 4.487-4.487 4.487-4.487 4.487-4.487 4.5-8.974 4.487h-17.962l-4.487 4.488-448.797 4.486-13.461 4.487-4.501 4.488-4.487 8.974-4.487 13.461-4.487 8.987-4.487 4.474-4.487 8.987-4.487 4.487-4.487 4.487-4.487 4.487-8.974 4.487-8.987 4.488H104.652zM912.492 659.923v4.488h-4.487z"  horiz-adv-x="1024" />

    
    <glyph glyph-name="tuichu" unicode="&#58895;" d="M950.093 408.228L770.318 581.306c-14.382 13.851-35.955 13.851-50.336 0-14.382-13.842-14.382-34.614 0-48.465l118.647-114.228H493.461c-21.573 0-35.955-13.842-35.955-34.614s14.382-34.614 35.955-34.614h345.168L719.99 235.157c-14.382-13.851-14.382-34.623 0-48.465 7.192-6.93 14.382-10.386 25.164-10.386 10.792 0 17.982 3.465 25.173 10.386l179.775 176.535s0 3.465 3.6 3.465c10.782 10.386 10.782 31.149-3.6 41.535zM853.01 141.693c-21.573 0-35.955-13.851-35.955-34.614v-69.237c0-20.763-14.382-34.614-35.955-34.614H169.865c-21.573 0-35.955 13.851-35.955 34.614V730.159c0 20.763 14.382 34.614 35.955 34.614H781.1c21.573 0 35.955-13.851 35.955-34.614v-69.237c0-20.764 14.382-34.614 35.955-34.614s35.955 13.851 35.955 34.614v69.237c0 58.842-46.736 103.842-107.865 103.842H169.865c-61.119 0-107.865-45-107.865-103.842v-692.317C62-21 108.747-66 169.865-66H781.1c61.128 0 107.865 45 107.865 103.842v69.237c0 20.764-14.382 34.614-35.955 34.614z"  horiz-adv-x="1024" />

    
    <glyph glyph-name="s-folder-back1" unicode="&#59031;" d="M492.8 723.2L377.6 832H108.8C51.2 832 0 780.8 0 723.2v-217.6h1024V614.4c0 57.6-51.2 108.8-108.8 108.8H492.8zM921.6 704H102.4C44.8 704 0 652.8 0 595.2v-544c0-57.6 44.8-108.8 102.4-108.8h819.2c57.6 0 102.4 51.2 102.4 108.8V595.2c0 57.6-44.8 108.8-102.4 108.8z"  horiz-adv-x="1024" />

    
    <glyph glyph-name="s-file" unicode="&#59014;" d="M732.630746 896H125.83424A55.660874 55.660874 0 0 1 70.620631 840.103724v-912.183908A55.660874 55.660874 0 0 1 125.83424-128h772.331402A55.660874 55.660874 0 0 1 953.379251-72.10372400000006V672.532598zM318.852355 570.250299h165.546667a27.954023 27.954023 0 0 0 0-55.896276H318.852355a27.954023 27.954023 0 0 0 0 55.896276zM705.029826 179.20000000000005H318.852355a27.954023 27.954023 0 0 0 0 55.896276H705.029826a27.954023 27.954023 0 0 0 0-55.896276z m0 167.571126H318.852355a27.954023 27.954023 0 0 0 0 55.896276H705.029826a27.954023 27.954023 0 0 0 0-55.896276zM953.379251 667.2478160000001H783.889596a57.061517 57.061517 0 0 0-56.496551 57.226299V896z m0 0"  horiz-adv-x="1024" />

    
    <glyph glyph-name="s-rename" unicode="&#58963;" d="M917 429c-24.9 0-45-20.1-45-45v-300c0-33.1-26.9-60-60-60H212c-33.1 0-60 26.9-60 60V684c0 33.1 26.9 60 60 60h300c24.9 0 45 20.1 45 45s-20.1 45-45 45H182c-66.3 0-120-53.7-120-120v-660c0-66.3 53.7-120 120-120h660c66.3 0 120 53.7 120 120V384c0 24.9-20.1 45-45 45zM356.2 213.20000000000005c17.5-17.5 46.1-17.5 63.6 0l487.9 487.9c17.5 17.5 17.5 46.1 0 63.6s-46.1 17.5-63.6 0L356.2 276.9c-17.5-17.5-17.5-46.2 0-63.7z"  horiz-adv-x="1024" />

    
    <glyph glyph-name="s-share" unicode="&#58908;" d="M643.657143 566.857143c-80.457143 0-146.285714 65.828571-146.285714 146.285714s65.828571 146.285714 146.285714 146.285714 146.285714-65.828571 146.285714-146.285714-65.828571-146.285714-146.285714-146.285714z m0 219.428571c-43.885714 0-73.142857-29.257143-73.142857-73.142857s29.257143-73.142857 73.142857-73.142857 73.142857 29.257143 73.142857 73.142857-29.257143 73.142857-73.142857 73.142857zM292.571429 113.37142900000003c-80.457143 0-146.285714 65.828571-146.285715 146.285714s65.828571 146.285714 146.285715 146.285714 146.285714-65.828571 146.285714-146.285714-65.828571-146.285714-146.285714-146.285714z m0 219.428571c-43.885714 0-73.142857-29.257143-73.142858-73.142857s29.257143-73.142857 73.142858-73.142857 73.142857 29.257143 73.142857 73.142857-36.571429 73.142857-73.142857 73.142857zM731.428571-91.42857100000003c-80.457143 0-146.285714 65.828571-146.285714 146.285714s65.828571 146.285714 146.285714 146.285714 146.285714-65.828571 146.285715-146.285714-65.828571-146.285714-146.285715-146.285714z m0 219.428571c-43.885714 0-73.142857-29.257143-73.142857-73.142857s29.257143-73.142857 73.142857-73.142857 73.142857 29.257143 73.142858 73.142857-29.257143 73.142857-73.142858 73.142857zM394.971429 340.114286L343.771429 384l7.314285 14.628571 197.485715 241.371429 58.514285-51.2zM599.771429 54.85714299999995L343.771429 186.51428599999997l29.257142 65.828571 36.571429-14.628571 226.742857-117.028572z"  horiz-adv-x="1024" />

    
    <glyph glyph-name="s-add-folder" unicode="&#58913;" d="M914.285714-54.85714299999995h-804.571428V822.857143h585.142857v-204.8h219.428571V-54.85714299999995z m-731.428571 65.828572h658.285714V552.228571h-219.428571V757.028571h-438.857143v-746.057142zM863.085714 559.542857l-7.314285 14.628572-212.114286 197.485714 51.2 51.2 29.257143-21.942857 190.171428-182.857143zM621.714286 223.08571400000005H365.714286v73.142857h292.571428v-73.142857zM548.571429 120.68571399999996h-73.142858V398.628571h73.142858v-29.257142z"  horiz-adv-x="1024" />

    
    <glyph glyph-name="guanbi" unicode="&#58980;" d="M566.211765 402.070588l385.505882 385.505883c18.070588 18.070588 18.070588 54.211765 0 72.282353-18.070588 18.070588-54.211765 18.070588-72.282353 0L493.929412 474.352941 108.423529 859.858824C90.352941 877.929412 60.235294 877.929412 36.141176 859.858824c-18.070588-24.094118-18.070588-54.211765 0-72.282353L421.647059 402.070588 36.141176 16.564706c-18.070588-18.070588-18.070588-54.211765 0-72.282353 18.070588-18.070588 54.211765-18.070588 72.282353 0l385.505883 385.505882 385.505882-385.505882c18.070588-18.070588 54.211765-18.070588 72.282353 0 18.070588 18.070588 18.070588 54.211765 0 72.282353L566.211765 402.070588z"  horiz-adv-x="1024" />

    
    <glyph glyph-name="wenjianguanli_fenxiangwenjianjia" unicode="&#58968;" d="M170.666667-42.666667h-33.28A52.053333 52.053333 0 0 0 85.333333 9.386667V758.613333A52.053333 52.053333 0 0 0 137.386667 810.666667h293.973333l83.2-77.653334h341.333333A80.64 80.64 0 0 0 938.666667 654.933333v-619.946666A80.64 80.64 0 0 0 853.333333-42.666667zM640 379.733333a194.56 194.56 0 0 1-39.68 25.6 120.32 120.32 0 1 1-172.8 0 190.72 190.72 0 0 1-107.946667-173.653333s0-13.226667 4.266667-17.066667a356.266667 356.266667 0 0 1 381.013333 0c3.84 3.84 4.266667 17.066667 4.266667 17.066667A194.56 194.56 0 0 1 640 379.733333zM290.986667 231.253333a190.72 190.72 0 0 0 107.946666 173.653334 119.466667 119.466667 0 0 0 13.653334 179.2 101.973333 101.973333 0 0 1-101.12-170.666667 162.133333 162.133333 0 0 1-91.733334-147.626667s0-11.093333 3.84-14.506666a236.8 236.8 0 0 1 68.693334-31.573334 69.973333 69.973333 0 0 0-1.28 11.52zM733.013333 231.253333a190.72 190.72 0 0 1-107.946666 173.653334 119.466667 119.466667 0 0 1-13.653334 179.2 101.973333 101.973333 0 0 0 101.12-170.666667 162.133333 162.133333 0 0 0 91.733334-147.626667s0-11.093333-3.84-14.506666a236.8 236.8 0 0 0-68.693334-31.573334 69.973333 69.973333 0 0 1 1.28 11.52z"  horiz-adv-x="1024" />

    
    <glyph glyph-name="s-cancel" unicode="&#58999;" d="M513 832.1c-247.4 0-447.9-200.5-447.9-447.9S265.6-63.700000000000045 513-63.700000000000045s447.9 200.5 447.9 447.9S760.4 832.1 513 832.1z m0-831.8c-51.9 0-102.1 10.1-149.4 30.1-45.7 19.3-86.8 47-122.1 82.3s-63 76.3-82.3 122.1c-20 47.3-30.1 97.6-30.1 149.4 0 51.9 10.1 102.1 30.1 149.4 15 35.5 35.1 68.2 59.8 97.5l541.4-540.5c-29.5-24.9-62.3-45.1-98-60.2-47.3-20-97.5-30.1-149.4-30.1z m292.7 135.5L264.1 676.5c29.9 25.5 63.2 46.1 99.5 61.4 47.3 20 97.6 30.1 149.4 30.1s102.1-10 149.4-30c45.7-19.3 86.8-47 122.1-82.3s63-76.3 82.3-122.1c20-47.3 30.1-97.6 30.1-149.4 0-51.9-10.1-102.1-30.1-149.4-15.3-36.1-35.8-69.3-61.1-99z"  horiz-adv-x="1024" />

    
    <glyph glyph-name="suoxiao" unicode="&#58907;" d="M93.090909 486.4c-55.854545 0-93.090909-37.236364-93.090909-93.090909v-9.309091c0-55.854545 37.236364-93.090909 93.090909-93.090909h605.090909V486.4H93.090909zM1024 374.690909v18.618182c0 55.854545-37.236364 93.090909-93.090909 93.090909H521.309091v-195.490909H930.909091c55.854545-9.309091 93.090909 37.236364 93.090909 83.781818z"  horiz-adv-x="1024" />

    
    <glyph glyph-name="s-trash" unicode="&#58919;" d="M786.3296 593.1007999999999v-471.3472c0-57.856-41.0624-104.7552-91.648-104.7552h-366.592c-50.5856 0-91.648 46.8992-91.648 104.7552V593.1007999999999h-45.7728v52.3264h137.5232v52.3264c0 28.8768 20.48 52.3264 45.7728 52.3264h274.944c25.2928 0 45.7728-23.4496 45.7728-52.3264v-52.3264h137.5232v-52.3264h-45.8752zM648.8064 697.856H373.9648v-52.3264h274.944v52.3264z m91.648-104.7552H282.2144v-471.3472c0-28.8768 20.48-52.3264 45.8752-52.3264h366.592c25.2928 0 45.7728 23.4496 45.7728 52.3264V593.1007999999999zM557.2608 488.3456h45.7728V174.08000000000004h-45.7728V488.3456z m-137.5232 0h45.7728V174.08000000000004h-45.7728V488.3456z m0 0"  horiz-adv-x="1024" />

    
    <glyph glyph-name="s-minimize" unicode="&#60259;" d="M960.3 319.9H63.9C28.8 319.9 0 348.6 0 383.79999999999995v0.2c0 35.2 28.8 63.9 63.9 63.9h896.4c35.2 0 63.9-28.8 63.9-63.9v-0.2c0-35.2-28.8-63.9-63.9-63.9z"  horiz-adv-x="1024" />

    
    <glyph glyph-name="suoxiao2" unicode="&#60272;" d="M880 335.9H146c-26.5 0-48 21.5-48 48s21.5 48 48 48h734c26.5 0 48-21.5 48-48s-21.5-48-48-48z"  horiz-adv-x="1024" />

    
    <glyph glyph-name="s-close" unicode="&#58880;" d="M574.55 373.65L904.4 703.5c16.65 16.65 16.65 44.1 0 60.75l-1.8 1.8c-16.65 16.65-44.1 16.65-60.75 0L512 435.75 182.15 766.05c-16.65 16.65-44.1 16.65-60.75 0l-1.8-1.8c-17.1-16.65-17.1-44.1 0-60.75l329.85-329.85L119.6 43.799999999999955c-16.65-16.65-16.65-44.1 0-60.75l1.8-1.8c16.65-16.65 44.1-16.65 60.75 0L512 311.1 841.85-18.75c16.65-16.65 44.1-16.65 60.75 0l1.8 1.8c16.65 16.65 16.65 44.1 0 60.75L574.55 373.65z"  horiz-adv-x="1024" />

    
    <glyph glyph-name="s-refresh" unicode="&#59026;" d="M926.528 651.3969999999999c-16.168 5.803-33.918-2.638-39.66-18.775l-24.018-67.247c-28.115 63.337-72.522 119.009-129.063 160.902-179.77 133.128-435.816 96.759-570.589-81.118-65.23-86.083-92.724-192.182-77.425-298.716 15.36-106.968 71.964-201.492 159.381-266.194C318.297 26.129999999999995 404.008 0 489.005 0c124.16 0 246.861 55.703 326.8 161.243 35.377 46.673 59.613 98.993 71.964 155.565 3.662 16.726-6.92 33.266-23.678 36.928-16.695 3.6-33.266-6.89-36.928-23.678-10.458-47.696-30.908-91.886-60.823-131.359-114.323-150.816-331.58-181.57-484.288-68.581-73.981 54.772-121.864 134.71-134.866 225.138-12.94 89.994 10.333 179.646 65.447 252.416 114.291 150.879 331.454 181.756 484.226 68.705 55.3-40.962 96.82-97.565 119.256-161.584l-106.657 41.645c-15.92 6.175-33.95-1.645-40.187-17.626-6.237-15.982 1.676-33.95 17.626-40.187l156.961-61.288c3.693-1.428 7.51-2.142 11.265-2.142 0.527 0 0.993 0.187 1.52 0.218 1.18-0.125 2.359-0.621 3.538-0.621 12.723 0 24.702 7.913 29.201 20.605l55.89 156.31c5.802 16.167-2.607 33.949-18.744 39.69z"  horiz-adv-x="1024" />

    
    <glyph glyph-name="s-open-file-filled" unicode="&#59202;" d="M710.283404 656.290909h135.168a18.711273 18.711273 0 0 1 13.032727 31.976727l-158.906182 158.72a18.525091 18.525091 0 0 1-31.604364-13.358545v-134.516364c-0.139636-40.680727 42.356364-42.821818 42.356364-42.821818zM875.845585 581.492364h-170.356363s-108.916364 8.378182-108.916364 109.847272V863.976727A31.883636 31.883636 0 0 1 564.782313 896H159.604131S123.345222 893.533091 123.345222 859.322182v-950.690909s2.466909-36.631273 36.305454-36.631273h711.68s36.352-0.139636 36.352 36.631273V549.4690909999999a31.883636 31.883636 0 0 1-31.790545 32.023273z m-187.99709-503.621819H344.529222a31.976727 31.976727 0 0 0 0 63.953455h343.319273a31.976727 31.976727 0 0 0 0-64z m0 161.466182H344.529222a31.976727 31.976727 0 0 0 0 64h343.319273a31.976727 31.976727 0 0 0 0-64z m0 161.605818H344.529222a31.976727 31.976727 0 0 0 0 64h343.319273a31.976727 31.976727 0 0 0 0-64z"  horiz-adv-x="1024" />

    
    <glyph glyph-name="s-open-file-outline" unicode="&#58931;" d="M248.832-49.19854499999997a95.138909 95.138909 0 0 0-95.045818 95.045818V722.199273a95.138909 95.138909 0 0 0 95.045818 94.859636h368.453818l252.695273-252.695273v-518.562909a95.092364 95.092364 0 0 0-95.045818-95.045818z m0 826.693818a54.830545 54.830545 0 0 1-55.296-55.296v-676.398546a54.830545 54.830545 0 0 1 55.296-55.296h525.963636a54.784 54.784 0 0 1 55.296 55.296V514.513455h-263.028363v262.981818z m358.074182-223.418182h217.227636l-217.227636 217.134545zM305.245091 347.97381800000005h402.525091v-39.982545H305.245091zM305.245091 197.02690900000005h402.525091v-39.982545H305.245091z"  horiz-adv-x="1024" />

    
    <glyph glyph-name="s-pause-outline" unicode="&#58947;" d="M720.896 800.768c-47.616 0-89.6-41.472-89.6-89.088v-655.36c0-47.616 41.984-89.088 89.6-89.088s89.6 41.472 89.6 89.088V711.6800000000001c-0.512 47.616-41.984 89.088-89.6 89.088z m-417.792 0c-47.616 0-89.6-41.472-89.6-89.088v-655.36c0-47.616 41.984-89.088 89.6-89.088s89.6 41.472 89.6 89.088V711.6800000000001c0 47.616-41.984 89.088-89.6 89.088z"  horiz-adv-x="1024" />

    
    <glyph glyph-name="s-arrow-bottom" unicode="&#58899;" d="M186.332 578.842c8.197 0 16.379-3.118 22.63-9.37L512 266.419l303.043 303.043a32.015 32.015 0 0 0 45.26 0 32.026 32.026 0 0 0 0-45.261L534.636 198.52800000000002a32 32 0 0 0-45.261 0L163.707 524.211a32.026 32.026 0 0 0 0 45.261 31.862 31.862 0 0 0 22.625 9.37z"  horiz-adv-x="1024" />

    
    <glyph glyph-name="s-download" unicode="&#58906;" d="M235.878 49.980999999999995c-56.284 0-102.072 45.789-102.072 102.073V307.159c0 14.367 11.689 26.056 26.05 26.056s26.051-11.69 26.051-26.056v-148.874c0-37.386 18.79-56.202 56.172-56.202h539.806c37.387 0 56.203 18.816 56.203 56.202V307.159c0 14.367 11.684 26.05 26.05 26.05s26.05-11.683 26.05-26.05v-154.793c0-56.453-45.926-102.38-102.379-102.38H235.88zM512 261.15a26.081 26.081 0 0 0-26.05 26.051V735.52a26.081 26.081 0 0 0 26.05 26.05 26.081 26.081 0 0 0 26.05-26.05v-448.323A26.076 26.076 0 0 0 512 261.15099999999995zM509.783 247.12199999999996a25.882 25.882 0 0 0-18.422 7.629L305.756 440.37a25.882 25.882 0 0 0-7.629 18.422c0 6.958 2.714 13.501 7.634 18.422s11.464 7.629 18.422 7.629 13.501-2.709 18.422-7.634l167.188-167.194 171.623 171.628a25.846 25.846 0 0 0 18.242 7.464c7.035 0 13.63-2.76 18.565-7.772 9.928-10.081 9.928-26.485 0-36.572L528.215 254.75599999999997a25.907 25.907 0 0 0-18.432-7.634z"  horiz-adv-x="1024" />

    
    <glyph glyph-name="s-upload" unicode="&#58942;" d="M219.136 49.152000000000044c-45.056 0-81.408 36.352-81.408 81.408V318.976c0 14.848 11.776 26.624 26.624 26.624 14.848 0 26.624-11.776 26.624-26.624v-174.592c0-25.6 16.384-41.984 41.984-41.984h558.08c25.6 0 41.984 16.384 41.984 41.984V318.976c0 7.168 2.56 13.824 7.68 18.944s11.776 7.68 18.944 7.68c14.848 0 26.624-11.776 26.624-26.624v-187.392c0-22.016-8.704-43.008-24.064-58.368s-36.352-24.064-58.368-24.064H219.136zM512 235.00800000000004c-7.168 0-13.824 2.56-18.944 7.68s-7.68 11.776-7.68 18.944V663.04L352.768 530.432c-5.12-5.12-11.776-7.68-18.944-7.68-7.168 0-13.824 2.56-18.944 7.68-10.24 10.24-10.24 27.136 0 37.376l177.664 178.176c5.12 5.12 11.776 7.68 18.944 7.68 7.168 0 13.824-2.56 18.944-7.68L708.096 568.3199999999999c10.24-10.24 10.24-27.136 0-37.376-5.12-5.12-11.776-7.68-18.944-7.68-7.168 0-13.824 2.56-18.944 7.68L537.6 663.552V261.12c1.024-14.336-10.752-26.112-25.6-26.112z"  horiz-adv-x="1024" />

    
    <glyph glyph-name="s-folder-jointly" unicode="&#58883;" d="M595.58912 416.06144c0.03584 16.90624 2.46272 33.28 6.912 48.86528a114.11968 114.11968 0 0 1-37.1456 6.18496c-61.15328 0-110.7456-47.83616-110.86336-107.01824 0-59.07456 49.71008-107.01824 110.86336-107.01824 8.36608 0 16.48128 0.96768 24.30976 2.6624a236.928 236.928 0 0 0 54.33856 33.12128c-30.13632 32.95232-48.41472 76.0576-48.41472 123.20256z m-43.24352-194.62656h-28.51328c-79.04256 0-143.13472-61.85472-143.13472-138.27072v-8.8832c0-30.10048 59.4688-31.2064 134.4768-31.25248a84.2752 84.2752 0 0 0-8.09984 36.29568v10.32192c-0.00512 49.24928 16.82944 94.80704 45.27104 131.7888zM47.25248 652.90752c38.0672 0.00512 854.53824 0.15872 869.43744 0-0.00512 34.31936-20.52608 60.76416-53.45792 60.76416-32.95744 0-375.13728 0.48128-417.57696 0-38.36928-0.4352-39.01952 21.99552-47.2576 40.23296-8.54016 18.88768-17.00864 33.9712-44.49792 33.9712-21.18144 0-256.6912-0.47104-273.00864 0-19.44064 0.55808-35.01056-19.00032-35.01056-32.33792v-102.6304h1.37216zM852.41856 250.23487999999998h-110.7456c-94.80704 0-171.68384-71.84384-171.68384-160.59392v-10.32192c0-36.29568 76.88192-36.29568 171.68384-36.29568h110.7456c94.80192 0 171.67872 1.36704 171.67872 36.29568v10.32192c0.00512 88.75008-76.8768 160.59392-171.67872 160.59392zM791.48544 540.23168c-73.35424 0-132.8384-55.56224-132.97664-124.29824 0-68.61312 59.6224-124.29824 132.97664-124.29824 73.48736 0 132.98176 55.68512 132.98176 124.29824s-59.6224 124.29824-132.98176 124.29824zM791.38304 602.50112c47.62112 0 91.31008-16.33792 125.30176-43.43296V652.90752H45.8752l0.01024-514.8416c0-21.04832 15.38048-38.12864 34.37056-38.12864h247.93088c6.50752 69.9392 51.62496 129.17248 114.432 157.056-25.82016 28.34432-41.52832 65.68448-41.52832 106.56256 0.16896 88.3456 73.81504 160.22016 164.16768 160.22016 20.85888 0 40.8064-3.86048 59.18208-10.81856 34.5088 53.66272 96.4608 89.54368 166.94272 89.54368z"  horiz-adv-x="1024" />

    
    <glyph glyph-name="suoxiao5" unicode="&#58892;" d="M1024 384a73.142857 73.142857 0 0 0-73.142857-73.142857H73.142857a73.142857 73.142857 0 1 0 0 146.285714h877.714286a73.142857 73.142857 0 0 0 73.142857-73.142857z"  horiz-adv-x="1024" />

    


  </font>
</defs>
</svg>
